<svg viewBox="0 0 200 200" xmlns="http://www.w3.org/2000/svg">
  <rect width="200" height="200" fill="#F7F4ED"/>
  <path d="
    M 100,98.5
    L 101.1,96.9 L 103.2,96.2 L 105.8,96.6 L 108.4,98.3 L 110.2,101.7
    L 110.5,105.9 L 109.0,110.5 L 105.8,114.4 L 101.1,117.3 L 95.2,118.5
    L 88.7,117.6 L 82.1,113.8 L 76.1,105.2 L 74.0,97.5 L 75.4,86.8
    L 80.3,77.8 L 88.0,71.0 L 97.7,66.9 L 108.5,66.1 L 119.6,69.0
    L 130.2,76.2 L 139.2,91.1 L 141.7,104.8 L 139.4,119.1 L 131.0,133.3
    L 119.2,143.2 L 103.4,148.9 L 86.8,149.0 L 71.0,143.8 L 55.6,131.2
    L 45.5,113.3 L 42.3,95.6 L 47.1,72.5 L 59.2,54.2 L 74.4,42.3
    L 94.1,35.4 L 117.5,35.7 L 139.3,44.0 L 157.5,59.8 L 169.4,81.5
    L 173.5,105.7 L 168.6,131.2 L 155.1,154.0 L 134.9,170.8 L 108.2,180.3
    L 81.0,180.2 L 54.1,170.6 L 31.1,151.4
  " stroke="#3B2314" stroke-width="5.5" stroke-linecap="round" stroke-linejoin="round" fill="none"/>
</svg>
