<svg viewBox="0 0 200 200" xmlns="http://www.w3.org/2000/svg">
  <rect width="200" height="200" fill="#F7F4ED"/>
  <path d="
    M 100,95
    L 103,95 L 106,96.6 L 107.75,100 L 107.5,104.4 L 104.8,108.3 L 100,110.5
    L 94.3,109.7 L 89.35,106.15 L 86.75,100 L 87.7,92.9 L 92.4,86.9
    L 100,84 L 108.4,83.8 L 115.5,91.1 L 118.75,100 L 117.1,109.85 L 110.3,118.3
    L 100,121.5 L 88.8,119.2 L 79.75,111.7 L 75.75,100 L 77.4,87.4 L 86.95,76.8
    L 100,73 L 113.9,76.9 L 124.9,90.55 L 129.75,100 L 126.5,115.35 L 115.8,128.1
    L 100,132.5 L 83.3,128.35 L 70.3,117.15 L 64.75,100 L 68.9,81.9 L 81.4,65.65
    L 100,62
  " stroke="#3B2314" stroke-width="6" stroke-linecap="round" stroke-linejoin="round" fill="none"/>
</svg>
